<?xml version="1.0" encoding="UTF-8"?>
<svg version="1.1" xmlns="http://www.w3.org/2000/svg" width="640" height="640">
<path d="M0 0 C1.010625 0.17160645 2.02125 0.34321289 3.0625 0.52001953 C65.24029741 11.28378118 128.27563251 39.50238093 172.49609375 85.49609375 C174.08809411 87.08809411 175.76302447 88.50592676 177.5 89.9375 C180.69644521 92.63073544 183.37448207 95.58101322 186.07421875 98.765625 C188.19192394 101.22267849 190.40605319 103.57157933 192.625 105.9375 C229.66320931 146.67953024 253.76509148 199.09718051 264.3125 252.8125 C264.55508545 254.038479 264.7976709 255.26445801 265.04760742 256.52758789 C268.46055791 274.70948145 269.37725712 292.64810776 269.3125 311.125 C269.30976578 312.74607666 269.30976578 312.74607666 269.30697632 314.39990234 C269.26227374 330.14220071 268.82155348 345.47590163 266 361 C265.83371094 361.98581055 265.66742187 362.97162109 265.49609375 363.98730469 C261.12555346 389.6682757 253.30913354 414.11048343 243 438 C242.49001465 439.18577637 242.49001465 439.18577637 241.96972656 440.39550781 C231.35835729 464.73163289 216.74899319 487.44355068 200 508 C199.34572021 508.80872559 199.34572021 508.80872559 198.67822266 509.63378906 C191.41444855 518.52747065 183.46563513 526.73950299 175.375 534.875 C174.89398834 535.36127869 174.41297668 535.84755737 173.91738892 536.34857178 C167.29426513 543.0277388 160.39143441 549.17803812 153 555 C152.29552734 555.56380371 151.59105469 556.12760742 150.86523438 556.70849609 C124.68808687 577.55737806 77.34533066 613.35635538 42 611 C36.47599856 609.68869498 33.14753894 607.91016074 30 603 C28.86468083 600.72936165 28.87072931 599.48479246 28.86196899 596.96360779 C28.85651566 596.11876831 28.85106232 595.27392883 28.84544373 594.40348816 C28.8444014 593.47426041 28.84335907 592.54503265 28.84228516 591.58764648 C28.83720444 590.61004364 28.83212372 589.6324408 28.82688904 588.62521362 C28.81616526 586.49447471 28.807553 584.36372439 28.80076981 582.23296928 C28.78897715 578.8465834 28.76951657 575.46032483 28.74765015 572.07398987 C28.68609394 562.44235571 28.6322615 552.81073028 28.59863281 543.17895508 C28.57751532 537.28911258 28.54206292 531.39949534 28.49787521 525.50978279 C28.48383265 523.27703596 28.47501972 521.04424919 28.47182083 518.81146049 C28.43469331 495.34876605 26.55609989 471.32996773 10 453 C9.34 452.67 8.68 452.34 8 452 C8.33 451.01 8.66 450.02 9 449 C9.67764404 448.90501221 10.35528809 448.81002441 11.0534668 448.7121582 C52.24725931 442.86007656 96.22201621 432.32645964 123.24072266 397.84912109 C149.08869058 363.32134172 156.98713135 316.05973632 151.31640625 273.79296875 C150.514498 269.10251201 149.370327 264.55410591 148 260 C147.79101074 259.27409668 147.58202148 258.54819336 147.36669922 257.80029297 C142.39464125 240.93998854 133.50830767 224.50830767 121 212 C121.37703947 206.34440794 122.93371284 200.87012018 124.28125 195.37890625 C129.19387073 172.28424902 124.96202681 149.79894718 117 128 C90.59035809 126.61608863 67.96349267 138.14674114 45.4375 150.6875 C44.79498291 151.04368408 44.15246582 151.39986816 43.49047852 151.7668457 C42.56513306 152.29024536 42.56513306 152.29024536 41.62109375 152.82421875 C41.01378418 153.16759277 40.40647461 153.5109668 39.78076172 153.86474609 C37.954765 154.96696712 37.954765 154.96696712 36.33251953 156.45166016 C33.8182158 158.62093534 32.16027912 160.02289859 28.74853516 159.95556641 C26.11857833 159.42999341 23.57817792 158.73788748 21 158 C19.14530797 157.5898691 17.28699955 157.19582199 15.42578125 156.81640625 C14.44496582 156.61233154 13.46415039 156.40825684 12.45361328 156.19799805 C-24.81895493 148.65715435 -62.78253912 147.71563948 -100.3125 153.875 C-101.81079346 154.11730347 -101.81079346 154.11730347 -103.33935547 154.36450195 C-108.03418825 155.16550327 -112.55246271 156.10381664 -117.09765625 157.53515625 C-129.22911167 161.22052216 -129.22911167 161.22052216 -135.4375 158.1875 C-139.34004563 155.91370098 -142.97414129 153.2827898 -146.62841797 150.63427734 C-150.70810638 147.82292937 -155.04696101 145.53433483 -159.4375 143.25 C-160.315271 142.79294678 -161.19304199 142.33589355 -162.09741211 141.86499023 C-179.97589278 132.77024908 -197.95830508 127.81401842 -218 127 C-219.78870114 133.39596164 -221.49028872 139.81313687 -223.125 146.25 C-223.38071777 147.2409668 -223.38071777 147.2409668 -223.64160156 148.25195312 C-228.4905564 167.51281151 -227.89845266 189.82840895 -221.0625 208.5703125 C-220.96202376 212.47632629 -223.50074022 214.70294872 -225.9375 217.5 C-226.96825042 218.75395668 -227.99423538 220.01184444 -229.015625 221.2734375 C-229.52544922 221.90217773 -230.03527344 222.53091797 -230.56054688 223.17871094 C-242.80097735 238.66609414 -248.90264446 257.75457894 -252 277 C-252.15082031 277.90492188 -252.30164063 278.80984375 -252.45703125 279.7421875 C-257.45065207 318.22635866 -248.89012345 364.65433497 -225.125 395.875 C-198.55266609 429.32560491 -157.68568942 443.10330065 -116.5234375 448.01269531 C-115.69585937 448.11549805 -114.86828125 448.21830078 -114.015625 448.32421875 C-113.28633789 448.40760498 -112.55705078 448.49099121 -111.80566406 448.5769043 C-110 449 -110 449 -108 451 C-108.43570312 451.38929688 -108.87140625 451.77859375 -109.3203125 452.1796875 C-119.25376059 461.51110844 -125.08049558 474.1273104 -126.8125 487.625 C-127.5422455 491.54258109 -127.75117602 491.81460174 -131.1875 494.375 C-133.3203125 495.19921875 -133.3203125 495.19921875 -136 496 C-137.19367188 496.35707031 -138.38734375 496.71414063 -139.6171875 497.08203125 C-159.72764831 502.8064508 -179.37511508 502.95889599 -198.1171875 492.8984375 C-208.12180046 486.31003384 -216.24304686 477.32279743 -222.6875 467.3125 C-231.83390533 453.37428766 -245.02391274 439.55793389 -262 436 C-264.97649683 435.76340023 -267.95247484 435.76918088 -270.9375 435.75 C-272.13536133 435.7190625 -272.13536133 435.7190625 -273.35742188 435.6875 C-278.10212809 435.65605207 -281.09189779 435.99984073 -285 439 C-282.98992851 445.39568201 -278.5294724 448.79315056 -273.09130859 452.43334961 C-255.66327934 464.10864618 -245.35517419 481.28514455 -236.75 500.0625 C-229.41322072 516.04480477 -219.47476857 526.30168047 -203 533 C-190.90950217 537.03329253 -179.25062889 538.19375069 -166.5625 538.1875 C-165.8938089 538.1882251 -165.2251178 538.1889502 -164.53616333 538.18969727 C-155.56175961 538.18862005 -146.80178356 537.86115589 -137.93359375 536.4375 C-135.22681225 536.03382553 -132.72880846 535.96779149 -130 536 C-129.90716338 544.24088132 -129.83616643 552.48154276 -129.79275131 560.72281837 C-129.77191011 564.54993842 -129.743657 568.37669969 -129.69824219 572.20361328 C-129.65465899 575.8994739 -129.63083682 579.59499026 -129.62049103 583.2910881 C-129.61312187 584.69847403 -129.59873137 586.10584193 -129.57707977 587.5130806 C-129.54788608 589.48981471 -129.54636475 591.46689804 -129.54589844 593.44384766 C-129.53701599 594.56747711 -129.52813354 595.69110657 -129.51898193 596.8487854 C-130.11201697 600.73383836 -131.64139682 602.89950968 -134 606 C-134.433125 606.5775 -134.86625 607.155 -135.3125 607.75 C-140.30043892 611.44476957 -145.43247435 611.11811218 -151.28588867 610.45507812 C-155.76701442 609.70372269 -159.88708382 608.23245847 -164.125 606.625 C-165.06802979 606.27268311 -166.01105957 605.92036621 -166.98266602 605.55737305 C-192.56336121 595.79961466 -216.87944846 583.16646782 -239 567 C-239.54688477 566.60329102 -240.09376953 566.20658203 -240.65722656 565.79785156 C-263.06521047 549.48746425 -285.15692029 530.12718315 -302 508 C-303.01049838 506.71648619 -304.02232559 505.43401794 -305.03515625 504.15234375 C-337.98315686 462.15778584 -358.87259469 413.50336242 -368 361 C-368.24991699 359.63584961 -368.24991699 359.63584961 -368.50488281 358.24414062 C-373.92260709 327.62222077 -373.68088481 292.55836238 -368 262 C-367.70198486 260.31898193 -367.70198486 260.31898193 -367.39794922 258.60400391 C-356.62210437 198.83237013 -329.94780592 144.01961444 -288.42578125 99.61328125 C-286.3245519 97.34963804 -284.30819473 95.04359107 -282.3125 92.6875 C-279.53434546 89.49098807 -276.55375673 86.74499617 -273.3203125 84.015625 C-271.08502142 82.07385699 -268.95388108 80.04567277 -266.81933594 77.99462891 C-235.57802319 48.24053484 -195.51893859 26.92544338 -155 13 C-153.6092627 12.52071045 -153.6092627 12.52071045 -152.19042969 12.03173828 C-135.78870459 6.48230423 -119.04656421 2.93898274 -102 0 C-100.98824707 -0.18079102 -99.97649414 -0.36158203 -98.93408203 -0.54785156 C-67.36012538 -5.95622895 -31.51373191 -5.59237798 0 0 Z " fill="#FFFFFF" transform="translate(371,3)"/>
</svg>
